{"title":"An.American.Crime.2007.DvDRiP.XViD.AC3(5.1).Optional MultiSub.Ze","uid":5813869,"size":1485160644,"categoryP":"video","categoryS":"movies","magnet":"?xt=urn:btih:065c077c836cbff322e97144f6ae774021133d6e&amp;dn=An.American.Crime.2007.DvDRiP.XViD.AC3%285.1%29.Optional+MultiSub.Ze&amp;tr=udp%3A%2F%2Ftracker.openbittorrent.com%3A80&amp;tr=udp%3A%2F%2Fopen.demonii.com%3A1337&amp;tr=udp%3A%2F%2Ftracker.coppersurfer.tk%3A6969&amp;tr=udp%3A%2F%2Fexodus.desync.com%3A6969","seeders":1,"leechers":0,"uploader":"Zen_Bud","files":-1,"time":1283758777,"description":"\nComplete name                    : An.American.Crime.2007.avi\nFormat                           : AVI\nFile size                        : 1.37 GiB\nDuration                         : 1h 33mn\nOverall bit rate                 : 2 096 Kbps\n\nVideo\n\nFormat                           : MPEG-4 Visual\nCodec ID/Hint                    : XviD\nDuration                         : 1h 33mn\nBit rate                         : 1 637 Kbps\nWidth                            : 720 pixels\nHeight                           : 576 pixels\nDisplay aspect ratio             : 16:9\nStream size                      : 1.07 GiB (78%)\nWriting library                  : XviD 1.1.2 (UTC 2006-11-01)\n\nAudio\n\nFormat                           : AC-3\nDuration                         : 1h 33mn\nBit rate                         : 448 Kbps\nChannel(s)                       : 6 channels\nChannel positions                : Front: L C R, Side: L R, LFE\nSampling rate                    : 48.0 KHz\nBit depth                        : 16 bits\nStream size                      : 300 MiB (21%)\n\n\nText #1\nLanguage                         : Swedish\n\nText #2\nLanguage                         : Finnish\n\nText #3\nLanguage                         : Norwegian\n\nText #4\nLanguage                         : Icelandic","torrent":{"xt":"urn:btih:065c077c836cbff322e97144f6ae774021133d6e","amp;dn":"An.American.Crime.2007.DvDRiP.XViD.AC3%285.1%29.Optional+MultiSub.Ze","amp;tr":["udp%3A%2F%2Ftracker.openbittorrent.com%3A80","udp%3A%2F%2Fopen.demonii.com%3A1337","udp%3A%2F%2Ftracker.coppersurfer.tk%3A6969","udp%3A%2F%2Fexodus.desync.com%3A6969"],"infoHash":"065c077c836cbff322e97144f6ae774021133d6e","infoHashBuffer":{"type":"Buffer","data":[6,92,7,124,131,108,191,243,34,233,113,68,246,174,119,64,33,19,61,110]},"announce":[],"urlList":[]}}